# xmcd CD database file
#
# Track frame offsets:
#	150
#	13337
#	26347
#	40557
#	52862
#	66892
#	77817
#	95182
#	110820
#	126270
#	146397
#	161762
#	172180
#	189965
#
# Disc length: 2699 seconds
#
# Revision: 0
# Processed by: cddbd v1.5PL3 Copyright (c) Steve Scherf et al.
# Submitted via: CDex 1.51
#
DISCID=be0a890e
DTITLE=Steve Eckels - Cowboy Songs for Acoustic Guitar
DYEAR=1998
DGENRE=Country
TTITLE0=Get Along Little Dogies
TTITLE1=Yellow Rose of Texas
TTITLE2=Home on the Range
TTITLE3=The Texas Cowboy
TTITLE4=Doney Gal
TTITLE5=The Hills of Mexico
TTITLE6=The Colorado Trail
TTITLE7=The Red River Valley
TTITLE8=Little Joe the Wrangler
TTITLE9=The Railroad Corral
TTITLE10=The Streets of Laredo
TTITLE11=Night Herding Song
TTITLE12=The Trail to Mexico
TTITLE13=The Old Paint Medley
EXTD=YEAR: 1998
EXTT0=
EXTT1=
EXTT2=
EXTT3=
EXTT4=
EXTT5=
EXTT6=
EXTT7=
EXTT8=
EXTT9=
EXTT10=
EXTT11=
EXTT12=
EXTT13=
PLAYORDER=
